<mxfile host="app.diagrams.net" modified="2024-05-30T14:57:46.219Z" agent="Mozilla/5.0 (Windows NT 10.0; Win64; x64) AppleWebKit/537.36 (KHTML, like Gecko) Chrome/125.0.0.0 Safari/537.36 Edg/125.0.0.0" etag="k8z_T9bnD9oxvo0TqlKu" version="24.4.9" type="device">
  <diagram name="PÃ¡gina-1" id="AaAMRy3M7c8mCv8Y-z39">
    <mxGraphModel dx="323" dy="184" grid="1" gridSize="10" guides="1" tooltips="1" connect="1" arrows="1" fold="1" page="1" pageScale="1" pageWidth="1200" pageHeight="1400" math="0" shadow="0">
      <root>
        <mxCell id="0" />
        <mxCell id="1" parent="0" />
        <mxCell id="4HWV0PZ-MZFRLMYxg-oZ-18" style="edgeStyle=orthogonalEdgeStyle;rounded=0;orthogonalLoop=1;jettySize=auto;html=1;exitX=1;exitY=0;exitDx=0;exitDy=0;entryX=0;entryY=0.5;entryDx=0;entryDy=0;" parent="1" source="4HWV0PZ-MZFRLMYxg-oZ-1" target="4HWV0PZ-MZFRLMYxg-oZ-4" edge="1">
          <mxGeometry relative="1" as="geometry" />
        </mxCell>
        <mxCell id="4HWV0PZ-MZFRLMYxg-oZ-23" value="1" style="edgeLabel;html=1;align=center;verticalAlign=middle;resizable=0;points=[];" parent="4HWV0PZ-MZFRLMYxg-oZ-18" vertex="1" connectable="0">
          <mxGeometry x="-0.3332" y="1" relative="1" as="geometry">
            <mxPoint as="offset" />
          </mxGeometry>
        </mxCell>
        <mxCell id="4HWV0PZ-MZFRLMYxg-oZ-19" style="edgeStyle=orthogonalEdgeStyle;rounded=0;orthogonalLoop=1;jettySize=auto;html=1;exitX=0.5;exitY=0;exitDx=0;exitDy=0;entryX=0;entryY=0.5;entryDx=0;entryDy=0;" parent="1" source="4HWV0PZ-MZFRLMYxg-oZ-1" target="4HWV0PZ-MZFRLMYxg-oZ-8" edge="1">
          <mxGeometry relative="1" as="geometry" />
        </mxCell>
        <mxCell id="4HWV0PZ-MZFRLMYxg-oZ-22" value="0" style="edgeLabel;html=1;align=center;verticalAlign=middle;resizable=0;points=[];" parent="4HWV0PZ-MZFRLMYxg-oZ-19" vertex="1" connectable="0">
          <mxGeometry x="-0.8282" y="1" relative="1" as="geometry">
            <mxPoint as="offset" />
          </mxGeometry>
        </mxCell>
        <mxCell id="4HWV0PZ-MZFRLMYxg-oZ-20" style="edgeStyle=orthogonalEdgeStyle;rounded=0;orthogonalLoop=1;jettySize=auto;html=1;exitX=1;exitY=1;exitDx=0;exitDy=0;entryX=0;entryY=0.5;entryDx=0;entryDy=0;fillColor=#f8cecc;strokeColor=#b85450;" parent="1" source="4HWV0PZ-MZFRLMYxg-oZ-1" target="4HWV0PZ-MZFRLMYxg-oZ-9" edge="1">
          <mxGeometry relative="1" as="geometry">
            <Array as="points">
              <mxPoint x="130" y="681" />
              <mxPoint x="130" y="710" />
              <mxPoint x="175" y="710" />
              <mxPoint x="175" y="860" />
            </Array>
          </mxGeometry>
        </mxCell>
        <mxCell id="4HWV0PZ-MZFRLMYxg-oZ-25" value="3" style="edgeLabel;html=1;align=center;verticalAlign=middle;resizable=0;points=[];" parent="4HWV0PZ-MZFRLMYxg-oZ-20" vertex="1" connectable="0">
          <mxGeometry x="-0.2882" y="2" relative="1" as="geometry">
            <mxPoint x="-2" y="16" as="offset" />
          </mxGeometry>
        </mxCell>
        <mxCell id="4HWV0PZ-MZFRLMYxg-oZ-1" value="A" style="ellipse;whiteSpace=wrap;html=1;aspect=fixed;" parent="1" vertex="1">
          <mxGeometry x="80" y="630" width="60" height="60" as="geometry" />
        </mxCell>
        <mxCell id="4HWV0PZ-MZFRLMYxg-oZ-2" value="" style="endArrow=classic;html=1;rounded=0;" parent="1" edge="1">
          <mxGeometry width="50" height="50" relative="1" as="geometry">
            <mxPoint x="10" y="660" as="sourcePoint" />
            <mxPoint x="80" y="660" as="targetPoint" />
          </mxGeometry>
        </mxCell>
        <mxCell id="4HWV0PZ-MZFRLMYxg-oZ-119" style="edgeStyle=orthogonalEdgeStyle;rounded=0;orthogonalLoop=1;jettySize=auto;html=1;exitX=0;exitY=0;exitDx=0;exitDy=0;entryX=0.753;entryY=0.078;entryDx=0;entryDy=0;fillColor=#d5e8d4;strokeColor=#82b366;entryPerimeter=0;" parent="1" source="4HWV0PZ-MZFRLMYxg-oZ-4" target="4HWV0PZ-MZFRLMYxg-oZ-1" edge="1">
          <mxGeometry relative="1" as="geometry" />
        </mxCell>
        <mxCell id="4HWV0PZ-MZFRLMYxg-oZ-121" value="0" style="edgeLabel;html=1;align=center;verticalAlign=middle;resizable=0;points=[];" parent="4HWV0PZ-MZFRLMYxg-oZ-119" vertex="1" connectable="0">
          <mxGeometry x="-0.8451" relative="1" as="geometry">
            <mxPoint as="offset" />
          </mxGeometry>
        </mxCell>
        <mxCell id="4HWV0PZ-MZFRLMYxg-oZ-120" style="edgeStyle=orthogonalEdgeStyle;rounded=0;orthogonalLoop=1;jettySize=auto;html=1;exitX=1;exitY=0.5;exitDx=0;exitDy=0;entryX=0.706;entryY=0.958;entryDx=0;entryDy=0;entryPerimeter=0;fillColor=#f8cecc;strokeColor=#b85450;" parent="1" target="4HWV0PZ-MZFRLMYxg-oZ-9" edge="1">
          <mxGeometry relative="1" as="geometry">
            <mxPoint x="267" y="475" as="sourcePoint" />
            <mxPoint x="267.78" y="848.6400000000001" as="targetPoint" />
            <Array as="points">
              <mxPoint x="760" y="475" />
              <mxPoint x="760" y="910" />
              <mxPoint x="252" y="910" />
            </Array>
          </mxGeometry>
        </mxCell>
        <mxCell id="4HWV0PZ-MZFRLMYxg-oZ-122" value="1" style="edgeLabel;html=1;align=center;verticalAlign=middle;resizable=0;points=[];" parent="4HWV0PZ-MZFRLMYxg-oZ-120" vertex="1" connectable="0">
          <mxGeometry x="-0.9588" relative="1" as="geometry">
            <mxPoint as="offset" />
          </mxGeometry>
        </mxCell>
        <mxCell id="4HWV0PZ-MZFRLMYxg-oZ-4" value="C" style="ellipse;whiteSpace=wrap;html=1;aspect=fixed;" parent="1" vertex="1">
          <mxGeometry x="210" y="450" width="60" height="60" as="geometry" />
        </mxCell>
        <mxCell id="4HWV0PZ-MZFRLMYxg-oZ-113" value="0" style="edgeStyle=orthogonalEdgeStyle;rounded=0;orthogonalLoop=1;jettySize=auto;html=1;exitX=0;exitY=1;exitDx=0;exitDy=0;entryX=1;entryY=1;entryDx=0;entryDy=0;fillColor=#d5e8d4;strokeColor=#82b366;" parent="1" source="4HWV0PZ-MZFRLMYxg-oZ-7" target="4HWV0PZ-MZFRLMYxg-oZ-1" edge="1">
          <mxGeometry x="-0.6774" y="-1" relative="1" as="geometry">
            <mxPoint as="offset" />
          </mxGeometry>
        </mxCell>
        <mxCell id="4HWV0PZ-MZFRLMYxg-oZ-115" style="edgeStyle=orthogonalEdgeStyle;rounded=0;orthogonalLoop=1;jettySize=auto;html=1;exitX=0.5;exitY=1;exitDx=0;exitDy=0;fillColor=#f8cecc;strokeColor=#b85450;entryX=0.5;entryY=0;entryDx=0;entryDy=0;" parent="1" source="4HWV0PZ-MZFRLMYxg-oZ-7" edge="1" target="4HWV0PZ-MZFRLMYxg-oZ-9">
          <mxGeometry relative="1" as="geometry">
            <mxPoint x="240" y="835" as="targetPoint" />
            <Array as="points">
              <mxPoint x="270" y="762" />
              <mxPoint x="240" y="762" />
            </Array>
          </mxGeometry>
        </mxCell>
        <mxCell id="4HWV0PZ-MZFRLMYxg-oZ-171" value="1" style="edgeLabel;html=1;align=center;verticalAlign=middle;resizable=0;points=[];" parent="4HWV0PZ-MZFRLMYxg-oZ-115" vertex="1" connectable="0">
          <mxGeometry x="-0.8611" y="-1" relative="1" as="geometry">
            <mxPoint as="offset" />
          </mxGeometry>
        </mxCell>
        <mxCell id="4HWV0PZ-MZFRLMYxg-oZ-7" value="D" style="ellipse;whiteSpace=wrap;html=1;aspect=fixed;" parent="1" vertex="1">
          <mxGeometry x="240.21" y="630" width="60" height="60" as="geometry" />
        </mxCell>
        <mxCell id="4HWV0PZ-MZFRLMYxg-oZ-33" style="edgeStyle=orthogonalEdgeStyle;rounded=0;orthogonalLoop=1;jettySize=auto;html=1;exitX=1;exitY=0.5;exitDx=0;exitDy=0;entryX=0;entryY=0.5;entryDx=0;entryDy=0;" parent="1" source="4HWV0PZ-MZFRLMYxg-oZ-8" target="4HWV0PZ-MZFRLMYxg-oZ-29" edge="1">
          <mxGeometry relative="1" as="geometry">
            <Array as="points">
              <mxPoint x="270" y="210" />
              <mxPoint x="295" y="210" />
              <mxPoint x="295" y="280" />
            </Array>
          </mxGeometry>
        </mxCell>
        <mxCell id="4HWV0PZ-MZFRLMYxg-oZ-71" value="1" style="edgeLabel;html=1;align=center;verticalAlign=middle;resizable=0;points=[];" parent="4HWV0PZ-MZFRLMYxg-oZ-33" vertex="1" connectable="0">
          <mxGeometry x="-0.2341" relative="1" as="geometry">
            <mxPoint as="offset" />
          </mxGeometry>
        </mxCell>
        <mxCell id="4HWV0PZ-MZFRLMYxg-oZ-69" style="edgeStyle=orthogonalEdgeStyle;rounded=0;orthogonalLoop=1;jettySize=auto;html=1;exitX=1;exitY=0;exitDx=0;exitDy=0;entryX=0;entryY=0.5;entryDx=0;entryDy=0;" parent="1" source="4HWV0PZ-MZFRLMYxg-oZ-8" target="4HWV0PZ-MZFRLMYxg-oZ-30" edge="1">
          <mxGeometry relative="1" as="geometry" />
        </mxCell>
        <mxCell id="4HWV0PZ-MZFRLMYxg-oZ-70" value="0" style="edgeLabel;html=1;align=center;verticalAlign=middle;resizable=0;points=[];" parent="4HWV0PZ-MZFRLMYxg-oZ-69" vertex="1" connectable="0">
          <mxGeometry x="-0.6576" y="-1" relative="1" as="geometry">
            <mxPoint as="offset" />
          </mxGeometry>
        </mxCell>
        <mxCell id="4HWV0PZ-MZFRLMYxg-oZ-76" style="edgeStyle=orthogonalEdgeStyle;rounded=0;orthogonalLoop=1;jettySize=auto;html=1;exitX=0.5;exitY=0;exitDx=0;exitDy=0;entryX=0.303;entryY=1.001;entryDx=0;entryDy=0;fillColor=#f8cecc;strokeColor=#b85450;entryPerimeter=0;" parent="1" target="4HWV0PZ-MZFRLMYxg-oZ-9" edge="1">
          <mxGeometry relative="1" as="geometry">
            <mxPoint x="238" y="181" as="sourcePoint" />
            <mxPoint x="268" y="871" as="targetPoint" />
            <Array as="points">
              <mxPoint x="238" y="10" />
              <mxPoint x="780" y="10" />
              <mxPoint x="780" y="950" />
              <mxPoint x="228" y="950" />
            </Array>
          </mxGeometry>
        </mxCell>
        <mxCell id="4HWV0PZ-MZFRLMYxg-oZ-77" value="3" style="edgeLabel;html=1;align=center;verticalAlign=middle;resizable=0;points=[];" parent="4HWV0PZ-MZFRLMYxg-oZ-76" vertex="1" connectable="0">
          <mxGeometry x="-0.979" y="3" relative="1" as="geometry">
            <mxPoint x="2" as="offset" />
          </mxGeometry>
        </mxCell>
        <mxCell id="4HWV0PZ-MZFRLMYxg-oZ-8" value="B" style="ellipse;whiteSpace=wrap;html=1;aspect=fixed;" parent="1" vertex="1">
          <mxGeometry x="210" y="170" width="60" height="60" as="geometry" />
        </mxCell>
        <mxCell id="4HWV0PZ-MZFRLMYxg-oZ-9" value="E" style="ellipse;whiteSpace=wrap;html=1;aspect=fixed;fillColor=#f8cecc;strokeColor=#b85450;" parent="1" vertex="1">
          <mxGeometry x="210" y="830" width="60" height="60" as="geometry" />
        </mxCell>
        <mxCell id="4HWV0PZ-MZFRLMYxg-oZ-11" value="" style="endArrow=classic;html=1;rounded=0;exitX=1;exitY=0.5;exitDx=0;exitDy=0;entryX=0;entryY=0.5;entryDx=0;entryDy=0;endFill=1;" parent="1" source="4HWV0PZ-MZFRLMYxg-oZ-1" target="4HWV0PZ-MZFRLMYxg-oZ-7" edge="1">
          <mxGeometry width="50" height="50" relative="1" as="geometry">
            <mxPoint x="750" y="800" as="sourcePoint" />
            <mxPoint x="800" y="750" as="targetPoint" />
          </mxGeometry>
        </mxCell>
        <mxCell id="4HWV0PZ-MZFRLMYxg-oZ-24" value="2" style="edgeLabel;html=1;align=center;verticalAlign=middle;resizable=0;points=[];" parent="4HWV0PZ-MZFRLMYxg-oZ-11" vertex="1" connectable="0">
          <mxGeometry x="0.0451" y="-2" relative="1" as="geometry">
            <mxPoint as="offset" />
          </mxGeometry>
        </mxCell>
        <mxCell id="4HWV0PZ-MZFRLMYxg-oZ-100" value="0" style="edgeStyle=orthogonalEdgeStyle;rounded=0;orthogonalLoop=1;jettySize=auto;html=1;exitX=1;exitY=0;exitDx=0;exitDy=0;entryX=0;entryY=0.5;entryDx=0;entryDy=0;" parent="1" source="4HWV0PZ-MZFRLMYxg-oZ-29" target="4HWV0PZ-MZFRLMYxg-oZ-95" edge="1">
          <mxGeometry relative="1" as="geometry">
            <Array as="points">
              <mxPoint x="371" y="240" />
            </Array>
          </mxGeometry>
        </mxCell>
        <mxCell id="4HWV0PZ-MZFRLMYxg-oZ-101" value="1" style="edgeStyle=orthogonalEdgeStyle;rounded=0;orthogonalLoop=1;jettySize=auto;html=1;exitX=1;exitY=1;exitDx=0;exitDy=0;entryX=0;entryY=0.5;entryDx=0;entryDy=0;" parent="1" source="4HWV0PZ-MZFRLMYxg-oZ-29" target="4HWV0PZ-MZFRLMYxg-oZ-96" edge="1">
          <mxGeometry relative="1" as="geometry">
            <Array as="points">
              <mxPoint x="371" y="320" />
            </Array>
          </mxGeometry>
        </mxCell>
        <mxCell id="4HWV0PZ-MZFRLMYxg-oZ-104" style="edgeStyle=orthogonalEdgeStyle;rounded=0;orthogonalLoop=1;jettySize=auto;html=1;exitX=0;exitY=0;exitDx=0;exitDy=0;entryX=1;entryY=0.5;entryDx=0;entryDy=0;fillColor=#d5e8d4;strokeColor=#82b366;" parent="1" source="4HWV0PZ-MZFRLMYxg-oZ-29" target="4HWV0PZ-MZFRLMYxg-oZ-8" edge="1">
          <mxGeometry relative="1" as="geometry">
            <Array as="points">
              <mxPoint x="329" y="200" />
            </Array>
          </mxGeometry>
        </mxCell>
        <mxCell id="4HWV0PZ-MZFRLMYxg-oZ-105" value="2" style="edgeLabel;html=1;align=center;verticalAlign=middle;resizable=0;points=[];" parent="4HWV0PZ-MZFRLMYxg-oZ-104" vertex="1" connectable="0">
          <mxGeometry x="-0.8225" y="1" relative="1" as="geometry">
            <mxPoint as="offset" />
          </mxGeometry>
        </mxCell>
        <mxCell id="4HWV0PZ-MZFRLMYxg-oZ-106" style="edgeStyle=orthogonalEdgeStyle;rounded=0;orthogonalLoop=1;jettySize=auto;html=1;exitX=0.5;exitY=0;exitDx=0;exitDy=0;fillColor=#f8cecc;strokeColor=#b85450;entryX=0.5;entryY=1;entryDx=0;entryDy=0;" parent="1" target="4HWV0PZ-MZFRLMYxg-oZ-9" edge="1">
          <mxGeometry relative="1" as="geometry">
            <mxPoint x="350" y="251.0000000000001" as="sourcePoint" />
            <mxPoint x="280" y="860" as="targetPoint" />
            <Array as="points">
              <mxPoint x="350" y="201" />
              <mxPoint x="820" y="201" />
              <mxPoint x="820" y="930" />
              <mxPoint x="240" y="930" />
            </Array>
          </mxGeometry>
        </mxCell>
        <mxCell id="4HWV0PZ-MZFRLMYxg-oZ-175" value="3" style="edgeLabel;html=1;align=center;verticalAlign=middle;resizable=0;points=[];" parent="4HWV0PZ-MZFRLMYxg-oZ-106" vertex="1" connectable="0">
          <mxGeometry x="-0.9771" relative="1" as="geometry">
            <mxPoint as="offset" />
          </mxGeometry>
        </mxCell>
        <mxCell id="4HWV0PZ-MZFRLMYxg-oZ-29" value="I" style="ellipse;whiteSpace=wrap;html=1;aspect=fixed;" parent="1" vertex="1">
          <mxGeometry x="320" y="250" width="60" height="60" as="geometry" />
        </mxCell>
        <mxCell id="4HWV0PZ-MZFRLMYxg-oZ-83" style="edgeStyle=orthogonalEdgeStyle;rounded=0;orthogonalLoop=1;jettySize=auto;html=1;exitX=0.5;exitY=0;exitDx=0;exitDy=0;entryX=0;entryY=0.5;entryDx=0;entryDy=0;" parent="1" source="4HWV0PZ-MZFRLMYxg-oZ-30" target="4HWV0PZ-MZFRLMYxg-oZ-81" edge="1">
          <mxGeometry relative="1" as="geometry">
            <Array as="points">
              <mxPoint x="350" y="80" />
            </Array>
          </mxGeometry>
        </mxCell>
        <mxCell id="4HWV0PZ-MZFRLMYxg-oZ-88" value="0" style="edgeLabel;html=1;align=center;verticalAlign=middle;resizable=0;points=[];" parent="4HWV0PZ-MZFRLMYxg-oZ-83" vertex="1" connectable="0">
          <mxGeometry x="-0.475" y="-1" relative="1" as="geometry">
            <mxPoint as="offset" />
          </mxGeometry>
        </mxCell>
        <mxCell id="4HWV0PZ-MZFRLMYxg-oZ-84" style="edgeStyle=orthogonalEdgeStyle;rounded=0;orthogonalLoop=1;jettySize=auto;html=1;exitX=0.5;exitY=1;exitDx=0;exitDy=0;" parent="1" source="4HWV0PZ-MZFRLMYxg-oZ-30" edge="1">
          <mxGeometry relative="1" as="geometry">
            <mxPoint x="350" y="155" as="sourcePoint" />
            <mxPoint x="430.1503768868014" y="165" as="targetPoint" />
            <Array as="points">
              <mxPoint x="350" y="165" />
            </Array>
          </mxGeometry>
        </mxCell>
        <mxCell id="4HWV0PZ-MZFRLMYxg-oZ-89" value="1" style="edgeLabel;html=1;align=center;verticalAlign=middle;resizable=0;points=[];" parent="4HWV0PZ-MZFRLMYxg-oZ-84" vertex="1" connectable="0">
          <mxGeometry x="-0.5306" y="-1" relative="1" as="geometry">
            <mxPoint as="offset" />
          </mxGeometry>
        </mxCell>
        <mxCell id="4HWV0PZ-MZFRLMYxg-oZ-91" style="edgeStyle=orthogonalEdgeStyle;rounded=0;orthogonalLoop=1;jettySize=auto;html=1;exitX=0;exitY=0;exitDx=0;exitDy=0;entryX=0;entryY=1;entryDx=0;entryDy=0;fillColor=#f8cecc;strokeColor=#b85450;" parent="1" source="4HWV0PZ-MZFRLMYxg-oZ-30" target="4HWV0PZ-MZFRLMYxg-oZ-9" edge="1">
          <mxGeometry relative="1" as="geometry">
            <Array as="points">
              <mxPoint x="340" y="99" />
              <mxPoint x="340" y="30" />
              <mxPoint x="800" y="30" />
              <mxPoint x="800" y="970" />
              <mxPoint x="219" y="970" />
            </Array>
          </mxGeometry>
        </mxCell>
        <mxCell id="4HWV0PZ-MZFRLMYxg-oZ-92" value="3" style="edgeLabel;html=1;align=center;verticalAlign=middle;resizable=0;points=[];" parent="4HWV0PZ-MZFRLMYxg-oZ-91" vertex="1" connectable="0">
          <mxGeometry x="-0.9657" y="1" relative="1" as="geometry">
            <mxPoint as="offset" />
          </mxGeometry>
        </mxCell>
        <mxCell id="4HWV0PZ-MZFRLMYxg-oZ-30" value="F" style="ellipse;whiteSpace=wrap;html=1;aspect=fixed;" parent="1" vertex="1">
          <mxGeometry x="320" y="90" width="60" height="60" as="geometry" />
        </mxCell>
        <mxCell id="4HWV0PZ-MZFRLMYxg-oZ-74" style="edgeStyle=orthogonalEdgeStyle;rounded=0;orthogonalLoop=1;jettySize=auto;html=1;exitX=0;exitY=0;exitDx=0;exitDy=0;entryX=0.311;entryY=0.058;entryDx=0;entryDy=0;entryPerimeter=0;fillColor=#d5e8d4;strokeColor=#82b366;" parent="1" source="4HWV0PZ-MZFRLMYxg-oZ-8" target="4HWV0PZ-MZFRLMYxg-oZ-1" edge="1">
          <mxGeometry relative="1" as="geometry" />
        </mxCell>
        <mxCell id="4HWV0PZ-MZFRLMYxg-oZ-75" value="2" style="edgeLabel;html=1;align=center;verticalAlign=middle;resizable=0;points=[];" parent="4HWV0PZ-MZFRLMYxg-oZ-74" vertex="1" connectable="0">
          <mxGeometry x="-0.9167" relative="1" as="geometry">
            <mxPoint as="offset" />
          </mxGeometry>
        </mxCell>
        <mxCell id="4HWV0PZ-MZFRLMYxg-oZ-79" style="edgeStyle=orthogonalEdgeStyle;rounded=0;orthogonalLoop=1;jettySize=auto;html=1;exitX=1;exitY=1;exitDx=0;exitDy=0;entryX=0.307;entryY=0.981;entryDx=0;entryDy=0;fillColor=#dae8fc;strokeColor=#6c8ebf;entryPerimeter=0;" parent="1" source="4HWV0PZ-MZFRLMYxg-oZ-8" target="4HWV0PZ-MZFRLMYxg-oZ-161" edge="1">
          <mxGeometry relative="1" as="geometry">
            <Array as="points">
              <mxPoint x="280" y="221" />
              <mxPoint x="280" y="609" />
            </Array>
          </mxGeometry>
        </mxCell>
        <mxCell id="4HWV0PZ-MZFRLMYxg-oZ-80" value="&lt;font style=&quot;font-size: 8px;&quot;&gt;ST&lt;/font&gt;" style="edgeLabel;html=1;align=center;verticalAlign=middle;resizable=0;points=[];" parent="4HWV0PZ-MZFRLMYxg-oZ-79" vertex="1" connectable="0">
          <mxGeometry x="-0.5149" y="-1" relative="1" as="geometry">
            <mxPoint y="-111" as="offset" />
          </mxGeometry>
        </mxCell>
        <mxCell id="4HWV0PZ-MZFRLMYxg-oZ-135" style="edgeStyle=orthogonalEdgeStyle;rounded=0;orthogonalLoop=1;jettySize=auto;html=1;exitX=0.5;exitY=0;exitDx=0;exitDy=0;entryX=0;entryY=0;entryDx=0;entryDy=0;fillColor=#d5e8d4;strokeColor=#82b366;" parent="1" edge="1">
          <mxGeometry relative="1" as="geometry">
            <mxPoint x="458" y="51" as="sourcePoint" />
            <mxPoint x="86.78679656440363" y="639.7867965644036" as="targetPoint" />
          </mxGeometry>
        </mxCell>
        <mxCell id="4HWV0PZ-MZFRLMYxg-oZ-136" value="0" style="edgeLabel;html=1;align=center;verticalAlign=middle;resizable=0;points=[];" parent="4HWV0PZ-MZFRLMYxg-oZ-135" vertex="1" connectable="0">
          <mxGeometry x="-0.9298" relative="1" as="geometry">
            <mxPoint as="offset" />
          </mxGeometry>
        </mxCell>
        <mxCell id="4HWV0PZ-MZFRLMYxg-oZ-81" value="G" style="ellipse;whiteSpace=wrap;html=1;aspect=fixed;" parent="1" vertex="1">
          <mxGeometry x="430" y="50" width="60" height="60" as="geometry" />
        </mxCell>
        <mxCell id="4HWV0PZ-MZFRLMYxg-oZ-147" style="edgeStyle=orthogonalEdgeStyle;rounded=0;orthogonalLoop=1;jettySize=auto;html=1;exitX=1;exitY=1;exitDx=0;exitDy=0;entryX=0.008;entryY=0.357;entryDx=0;entryDy=0;entryPerimeter=0;fillColor=#d5e8d4;strokeColor=#82b366;" parent="1" source="4HWV0PZ-MZFRLMYxg-oZ-82" edge="1">
          <mxGeometry relative="1" as="geometry">
            <mxPoint x="479.2132034355966" y="196.2132034355967" as="sourcePoint" />
            <mxPoint x="80.48000000000002" y="651.42" as="targetPoint" />
            <Array as="points">
              <mxPoint x="550" y="184" />
              <mxPoint x="550" y="20" />
              <mxPoint x="81" y="20" />
            </Array>
          </mxGeometry>
        </mxCell>
        <mxCell id="4HWV0PZ-MZFRLMYxg-oZ-148" value="0" style="edgeLabel;html=1;align=center;verticalAlign=middle;resizable=0;points=[];" parent="4HWV0PZ-MZFRLMYxg-oZ-147" vertex="1" connectable="0">
          <mxGeometry x="-0.9641" y="1" relative="1" as="geometry">
            <mxPoint as="offset" />
          </mxGeometry>
        </mxCell>
        <mxCell id="4HWV0PZ-MZFRLMYxg-oZ-82" value="H" style="ellipse;whiteSpace=wrap;html=1;aspect=fixed;" parent="1" vertex="1">
          <mxGeometry x="430" y="133" width="60" height="60" as="geometry" />
        </mxCell>
        <mxCell id="4HWV0PZ-MZFRLMYxg-oZ-85" style="edgeStyle=orthogonalEdgeStyle;rounded=0;orthogonalLoop=1;jettySize=auto;html=1;exitX=0.054;exitY=0.73;exitDx=0;exitDy=0;entryX=0;entryY=0.5;entryDx=0;entryDy=0;exitPerimeter=0;fillColor=#dae8fc;strokeColor=#6c8ebf;" parent="1" source="4HWV0PZ-MZFRLMYxg-oZ-30" target="4HWV0PZ-MZFRLMYxg-oZ-161" edge="1">
          <mxGeometry relative="1" as="geometry">
            <Array as="points">
              <mxPoint x="320" y="134" />
              <mxPoint x="320" y="580" />
            </Array>
          </mxGeometry>
        </mxCell>
        <mxCell id="4HWV0PZ-MZFRLMYxg-oZ-86" value="&lt;font style=&quot;font-size: 8px;&quot;&gt;ST&lt;/font&gt;" style="edgeLabel;html=1;align=center;verticalAlign=middle;resizable=0;points=[];" parent="1" vertex="1" connectable="0">
          <mxGeometry x="270.2120668663483" y="248.11454460093728" as="geometry">
            <mxPoint x="50" y="-99" as="offset" />
          </mxGeometry>
        </mxCell>
        <mxCell id="4HWV0PZ-MZFRLMYxg-oZ-87" style="edgeStyle=orthogonalEdgeStyle;rounded=0;orthogonalLoop=1;jettySize=auto;html=1;exitX=0;exitY=0;exitDx=0;exitDy=0;entryX=0.658;entryY=0.031;entryDx=0;entryDy=0;entryPerimeter=0;fillColor=#d5e8d4;strokeColor=#82b366;" parent="1" source="4HWV0PZ-MZFRLMYxg-oZ-30" target="4HWV0PZ-MZFRLMYxg-oZ-8" edge="1">
          <mxGeometry relative="1" as="geometry" />
        </mxCell>
        <mxCell id="4HWV0PZ-MZFRLMYxg-oZ-90" value="2" style="edgeLabel;html=1;align=center;verticalAlign=middle;resizable=0;points=[];" parent="4HWV0PZ-MZFRLMYxg-oZ-87" vertex="1" connectable="0">
          <mxGeometry x="-0.5794" y="1" relative="1" as="geometry">
            <mxPoint as="offset" />
          </mxGeometry>
        </mxCell>
        <mxCell id="4HWV0PZ-MZFRLMYxg-oZ-126" style="edgeStyle=orthogonalEdgeStyle;rounded=0;orthogonalLoop=1;jettySize=auto;html=1;entryX=1;entryY=1;entryDx=0;entryDy=0;fillColor=#f8cecc;strokeColor=#b85450;" parent="1" target="4HWV0PZ-MZFRLMYxg-oZ-9" edge="1">
          <mxGeometry relative="1" as="geometry">
            <mxPoint x="490" y="80" as="sourcePoint" />
            <mxPoint x="290" y="865" as="targetPoint" />
            <Array as="points">
              <mxPoint x="720" y="80" />
              <mxPoint x="720" y="881" />
            </Array>
          </mxGeometry>
        </mxCell>
        <mxCell id="4HWV0PZ-MZFRLMYxg-oZ-130" value="1" style="edgeLabel;html=1;align=center;verticalAlign=middle;resizable=0;points=[];" parent="4HWV0PZ-MZFRLMYxg-oZ-126" vertex="1" connectable="0">
          <mxGeometry x="-0.9794" y="-1" relative="1" as="geometry">
            <mxPoint x="14" y="-1" as="offset" />
          </mxGeometry>
        </mxCell>
        <mxCell id="4HWV0PZ-MZFRLMYxg-oZ-93" value="" style="ellipse;whiteSpace=wrap;html=1;aspect=fixed;fillColor=none;" parent="1" vertex="1">
          <mxGeometry x="435" y="55" width="50" height="50" as="geometry" />
        </mxCell>
        <mxCell id="4HWV0PZ-MZFRLMYxg-oZ-127" style="edgeStyle=orthogonalEdgeStyle;rounded=0;orthogonalLoop=1;jettySize=auto;html=1;exitX=1;exitY=0.5;exitDx=0;exitDy=0;entryX=1;entryY=0.5;entryDx=0;entryDy=0;fillColor=#f8cecc;strokeColor=#b85450;" parent="1" source="4HWV0PZ-MZFRLMYxg-oZ-82" edge="1">
          <mxGeometry relative="1" as="geometry">
            <mxPoint x="484.9999999999977" y="169" as="sourcePoint" />
            <mxPoint x="270.0000000000035" y="869" as="targetPoint" />
            <Array as="points">
              <mxPoint x="490" y="160" />
              <mxPoint x="700" y="160" />
              <mxPoint x="700" y="869" />
            </Array>
          </mxGeometry>
        </mxCell>
        <mxCell id="4HWV0PZ-MZFRLMYxg-oZ-172" value="1" style="edgeLabel;html=1;align=center;verticalAlign=middle;resizable=0;points=[];" parent="4HWV0PZ-MZFRLMYxg-oZ-127" vertex="1" connectable="0">
          <mxGeometry x="-0.9593" y="1" relative="1" as="geometry">
            <mxPoint as="offset" />
          </mxGeometry>
        </mxCell>
        <mxCell id="4HWV0PZ-MZFRLMYxg-oZ-94" value="" style="ellipse;whiteSpace=wrap;html=1;aspect=fixed;fillColor=none;" parent="1" vertex="1">
          <mxGeometry x="435" y="138" width="50" height="50" as="geometry" />
        </mxCell>
        <mxCell id="4HWV0PZ-MZFRLMYxg-oZ-128" style="edgeStyle=orthogonalEdgeStyle;rounded=0;orthogonalLoop=1;jettySize=auto;html=1;exitX=1;exitY=0.5;exitDx=0;exitDy=0;entryX=1;entryY=0.5;entryDx=0;entryDy=0;fillColor=#f8cecc;strokeColor=#b85450;" parent="1" edge="1">
          <mxGeometry relative="1" as="geometry">
            <mxPoint x="490" y="235" as="sourcePoint" />
            <mxPoint x="270" y="855" as="targetPoint" />
            <Array as="points">
              <mxPoint x="680" y="235" />
              <mxPoint x="680" y="855" />
            </Array>
          </mxGeometry>
        </mxCell>
        <mxCell id="4HWV0PZ-MZFRLMYxg-oZ-174" value="1" style="edgeLabel;html=1;align=center;verticalAlign=middle;resizable=0;points=[];" parent="4HWV0PZ-MZFRLMYxg-oZ-128" vertex="1" connectable="0">
          <mxGeometry x="-0.9463" y="1" relative="1" as="geometry">
            <mxPoint as="offset" />
          </mxGeometry>
        </mxCell>
        <mxCell id="4HWV0PZ-MZFRLMYxg-oZ-155" style="edgeStyle=orthogonalEdgeStyle;rounded=0;orthogonalLoop=1;jettySize=auto;html=1;exitX=0.5;exitY=0;exitDx=0;exitDy=0;entryX=0;entryY=1;entryDx=0;entryDy=0;fillColor=#d5e8d4;strokeColor=#82b366;" parent="1" source="4HWV0PZ-MZFRLMYxg-oZ-95" target="4HWV0PZ-MZFRLMYxg-oZ-1" edge="1">
          <mxGeometry relative="1" as="geometry">
            <mxPoint x="329.9999999999998" y="801" as="targetPoint" />
            <Array as="points">
              <mxPoint x="460" y="220" />
              <mxPoint x="630" y="220" />
              <mxPoint x="630" y="820" />
              <mxPoint x="89" y="820" />
            </Array>
          </mxGeometry>
        </mxCell>
        <mxCell id="4HWV0PZ-MZFRLMYxg-oZ-173" value="0" style="edgeLabel;html=1;align=center;verticalAlign=middle;resizable=0;points=[];" parent="4HWV0PZ-MZFRLMYxg-oZ-155" vertex="1" connectable="0">
          <mxGeometry x="-0.9182" y="1" relative="1" as="geometry">
            <mxPoint as="offset" />
          </mxGeometry>
        </mxCell>
        <mxCell id="4HWV0PZ-MZFRLMYxg-oZ-95" value="J" style="ellipse;whiteSpace=wrap;html=1;aspect=fixed;" parent="1" vertex="1">
          <mxGeometry x="430" y="210" width="60" height="60" as="geometry" />
        </mxCell>
        <mxCell id="4HWV0PZ-MZFRLMYxg-oZ-129" style="edgeStyle=orthogonalEdgeStyle;rounded=0;orthogonalLoop=1;jettySize=auto;html=1;exitX=1;exitY=0.5;exitDx=0;exitDy=0;entryX=1;entryY=0;entryDx=0;entryDy=0;fillColor=#f8cecc;strokeColor=#b85450;" parent="1" source="4HWV0PZ-MZFRLMYxg-oZ-96" target="4HWV0PZ-MZFRLMYxg-oZ-9" edge="1">
          <mxGeometry relative="1" as="geometry">
            <Array as="points">
              <mxPoint x="660" y="320" />
              <mxPoint x="660" y="839" />
            </Array>
          </mxGeometry>
        </mxCell>
        <mxCell id="4HWV0PZ-MZFRLMYxg-oZ-134" value="1" style="edgeLabel;html=1;align=center;verticalAlign=middle;resizable=0;points=[];" parent="4HWV0PZ-MZFRLMYxg-oZ-129" vertex="1" connectable="0">
          <mxGeometry x="-0.942" relative="1" as="geometry">
            <mxPoint as="offset" />
          </mxGeometry>
        </mxCell>
        <mxCell id="4HWV0PZ-MZFRLMYxg-oZ-152" style="edgeStyle=orthogonalEdgeStyle;rounded=0;orthogonalLoop=1;jettySize=auto;html=1;exitX=0.97;exitY=0.648;exitDx=0;exitDy=0;entryX=0.196;entryY=0.908;entryDx=0;entryDy=0;entryPerimeter=0;exitPerimeter=0;fillColor=#d5e8d4;strokeColor=#82b366;" parent="1" source="4HWV0PZ-MZFRLMYxg-oZ-96" edge="1">
          <mxGeometry relative="1" as="geometry">
            <mxPoint x="492.74" y="337.22" as="sourcePoint" />
            <mxPoint x="97.75999999999999" y="687.48" as="targetPoint" />
            <Array as="points">
              <mxPoint x="488" y="330" />
              <mxPoint x="644" y="330" />
              <mxPoint x="644" y="806" />
              <mxPoint x="98" y="806" />
            </Array>
          </mxGeometry>
        </mxCell>
        <mxCell id="4HWV0PZ-MZFRLMYxg-oZ-153" value="0" style="edgeLabel;html=1;align=center;verticalAlign=middle;resizable=0;points=[];" parent="4HWV0PZ-MZFRLMYxg-oZ-152" vertex="1" connectable="0">
          <mxGeometry x="-0.9619" y="-1" relative="1" as="geometry">
            <mxPoint as="offset" />
          </mxGeometry>
        </mxCell>
        <mxCell id="4HWV0PZ-MZFRLMYxg-oZ-96" value="K" style="ellipse;whiteSpace=wrap;html=1;aspect=fixed;" parent="1" vertex="1">
          <mxGeometry x="430" y="290" width="60" height="60" as="geometry" />
        </mxCell>
        <mxCell id="4HWV0PZ-MZFRLMYxg-oZ-97" value="" style="ellipse;whiteSpace=wrap;html=1;aspect=fixed;fillColor=none;" parent="1" vertex="1">
          <mxGeometry x="435" y="295" width="50" height="50" as="geometry" />
        </mxCell>
        <mxCell id="4HWV0PZ-MZFRLMYxg-oZ-98" value="" style="ellipse;whiteSpace=wrap;html=1;aspect=fixed;fillColor=none;" parent="1" vertex="1">
          <mxGeometry x="435" y="215" width="50" height="50" as="geometry" />
        </mxCell>
        <mxCell id="4HWV0PZ-MZFRLMYxg-oZ-102" style="edgeStyle=orthogonalEdgeStyle;rounded=0;orthogonalLoop=1;jettySize=auto;html=1;exitX=0.5;exitY=1;exitDx=0;exitDy=0;entryX=0;entryY=1;entryDx=0;entryDy=0;fillColor=#dae8fc;strokeColor=#6c8ebf;" parent="1" source="4HWV0PZ-MZFRLMYxg-oZ-29" target="4HWV0PZ-MZFRLMYxg-oZ-161" edge="1">
          <mxGeometry relative="1" as="geometry">
            <Array as="points">
              <mxPoint x="350" y="330" />
              <mxPoint x="310" y="330" />
              <mxPoint x="310" y="601" />
            </Array>
          </mxGeometry>
        </mxCell>
        <mxCell id="4HWV0PZ-MZFRLMYxg-oZ-103" value="&lt;font style=&quot;font-size: 8px;&quot;&gt;ST&lt;/font&gt;" style="edgeLabel;html=1;align=center;verticalAlign=middle;resizable=0;points=[];" parent="1" vertex="1" connectable="0">
          <mxGeometry x="270.21849062328465" y="248.1024045511674" as="geometry">
            <mxPoint x="80" y="72" as="offset" />
          </mxGeometry>
        </mxCell>
        <mxCell id="4HWV0PZ-MZFRLMYxg-oZ-108" style="edgeStyle=orthogonalEdgeStyle;rounded=0;orthogonalLoop=1;jettySize=auto;html=1;exitX=0.445;exitY=0.992;exitDx=0;exitDy=0;fillColor=#dae8fc;strokeColor=#6c8ebf;entryX=1;entryY=1;entryDx=0;entryDy=0;exitPerimeter=0;" parent="1" source="4HWV0PZ-MZFRLMYxg-oZ-1" edge="1">
          <mxGeometry relative="1" as="geometry">
            <mxPoint x="107" y="693.0000000000001" as="sourcePoint" />
            <mxPoint x="508.2132034355959" y="604.2132034355959" as="targetPoint" />
            <Array as="points">
              <mxPoint x="107" y="793" />
              <mxPoint x="508" y="793" />
            </Array>
          </mxGeometry>
        </mxCell>
        <mxCell id="4HWV0PZ-MZFRLMYxg-oZ-110" value="&lt;font style=&quot;font-size: 8px;&quot;&gt;ST&lt;/font&gt;" style="edgeLabel;html=1;align=center;verticalAlign=middle;resizable=0;points=[];" parent="4HWV0PZ-MZFRLMYxg-oZ-108" vertex="1" connectable="0">
          <mxGeometry x="-0.1619" relative="1" as="geometry">
            <mxPoint x="-187" y="-84" as="offset" />
          </mxGeometry>
        </mxCell>
        <mxCell id="4HWV0PZ-MZFRLMYxg-oZ-111" value="" style="ellipse;whiteSpace=wrap;html=1;aspect=fixed;fillColor=none;" parent="1" vertex="1">
          <mxGeometry x="245.21999999999997" y="635" width="50" height="50" as="geometry" />
        </mxCell>
        <mxCell id="4HWV0PZ-MZFRLMYxg-oZ-117" style="edgeStyle=orthogonalEdgeStyle;rounded=0;orthogonalLoop=1;jettySize=auto;html=1;exitX=1;exitY=0.5;exitDx=0;exitDy=0;entryX=0.5;entryY=1;entryDx=0;entryDy=0;fillColor=#dae8fc;strokeColor=#6c8ebf;" parent="1" edge="1" source="4HWV0PZ-MZFRLMYxg-oZ-7">
          <mxGeometry relative="1" as="geometry">
            <mxPoint x="308.20999999999844" y="660" as="sourcePoint" />
            <mxPoint x="498" y="610" as="targetPoint" />
            <Array as="points">
              <mxPoint x="498" y="660" />
            </Array>
          </mxGeometry>
        </mxCell>
        <mxCell id="4HWV0PZ-MZFRLMYxg-oZ-162" value="&lt;font style=&quot;font-size: 8px;&quot;&gt;ST&lt;/font&gt;" style="edgeLabel;html=1;align=center;verticalAlign=middle;resizable=0;points=[];" parent="4HWV0PZ-MZFRLMYxg-oZ-117" vertex="1" connectable="0">
          <mxGeometry x="-0.7825" relative="1" as="geometry">
            <mxPoint x="-12" y="-1" as="offset" />
          </mxGeometry>
        </mxCell>
        <mxCell id="4HWV0PZ-MZFRLMYxg-oZ-123" style="edgeStyle=orthogonalEdgeStyle;rounded=0;orthogonalLoop=1;jettySize=auto;html=1;entryX=0;entryY=1;entryDx=0;entryDy=0;fillColor=#dae8fc;strokeColor=#6c8ebf;" parent="1" edge="1">
          <mxGeometry relative="1" as="geometry">
            <mxPoint x="250" y="509" as="sourcePoint" />
            <mxPoint x="484.7867965644085" y="609.2132034355914" as="targetPoint" />
            <Array as="points">
              <mxPoint x="250" y="509" />
              <mxPoint x="250" y="628" />
              <mxPoint x="485" y="628" />
            </Array>
          </mxGeometry>
        </mxCell>
        <mxCell id="4HWV0PZ-MZFRLMYxg-oZ-124" value="&lt;font style=&quot;font-size: 8px;&quot;&gt;ST&lt;/font&gt;" style="edgeLabel;html=1;align=center;verticalAlign=middle;resizable=0;points=[];" parent="4HWV0PZ-MZFRLMYxg-oZ-123" vertex="1" connectable="0">
          <mxGeometry x="-0.6124" y="-1" relative="1" as="geometry">
            <mxPoint x="1" y="-56" as="offset" />
          </mxGeometry>
        </mxCell>
        <mxCell id="4HWV0PZ-MZFRLMYxg-oZ-137" style="edgeStyle=orthogonalEdgeStyle;rounded=0;orthogonalLoop=1;jettySize=auto;html=1;exitX=0.967;exitY=0.676;exitDx=0;exitDy=0;entryX=1;entryY=0;entryDx=0;entryDy=0;exitPerimeter=0;fillColor=#dae8fc;strokeColor=#6c8ebf;" parent="1" source="4HWV0PZ-MZFRLMYxg-oZ-81" target="4HWV0PZ-MZFRLMYxg-oZ-161" edge="1">
          <mxGeometry relative="1" as="geometry">
            <Array as="points">
              <mxPoint x="488" y="130" />
              <mxPoint x="620" y="130" />
              <mxPoint x="620" y="559" />
            </Array>
          </mxGeometry>
        </mxCell>
        <mxCell id="4HWV0PZ-MZFRLMYxg-oZ-139" value="&lt;font style=&quot;font-size: 8px;&quot;&gt;ST&lt;/font&gt;" style="edgeLabel;html=1;align=center;verticalAlign=middle;resizable=0;points=[];" parent="4HWV0PZ-MZFRLMYxg-oZ-137" vertex="1" connectable="0">
          <mxGeometry x="-0.583" relative="1" as="geometry">
            <mxPoint x="-108" y="-19" as="offset" />
          </mxGeometry>
        </mxCell>
        <mxCell id="4HWV0PZ-MZFRLMYxg-oZ-138" style="edgeStyle=orthogonalEdgeStyle;rounded=0;orthogonalLoop=1;jettySize=auto;html=1;entryX=0;entryY=0;entryDx=0;entryDy=0;exitX=0.33;exitY=0.029;exitDx=0;exitDy=0;exitPerimeter=0;fillColor=#dae8fc;strokeColor=#6c8ebf;" parent="1" source="4HWV0PZ-MZFRLMYxg-oZ-82" target="4HWV0PZ-MZFRLMYxg-oZ-161" edge="1">
          <mxGeometry relative="1" as="geometry">
            <mxPoint x="450" y="133" as="sourcePoint" />
            <Array as="points">
              <mxPoint x="450" y="120" />
              <mxPoint x="400" y="120" />
              <mxPoint x="400" y="559" />
            </Array>
          </mxGeometry>
        </mxCell>
        <mxCell id="4HWV0PZ-MZFRLMYxg-oZ-140" value="&lt;font style=&quot;font-size: 8px;&quot;&gt;ST&lt;/font&gt;" style="edgeLabel;html=1;align=center;verticalAlign=middle;resizable=0;points=[];" parent="4HWV0PZ-MZFRLMYxg-oZ-138" vertex="1" connectable="0">
          <mxGeometry x="-0.2678" relative="1" as="geometry">
            <mxPoint x="30" y="-145" as="offset" />
          </mxGeometry>
        </mxCell>
        <mxCell id="4HWV0PZ-MZFRLMYxg-oZ-141" style="edgeStyle=orthogonalEdgeStyle;rounded=0;orthogonalLoop=1;jettySize=auto;html=1;exitX=1;exitY=0.5;exitDx=0;exitDy=0;entryX=1;entryY=0.5;entryDx=0;entryDy=0;fillColor=#dae8fc;strokeColor=#6c8ebf;" parent="1" source="4HWV0PZ-MZFRLMYxg-oZ-95" target="4HWV0PZ-MZFRLMYxg-oZ-161" edge="1">
          <mxGeometry relative="1" as="geometry">
            <Array as="points">
              <mxPoint x="510" y="240" />
              <mxPoint x="510" y="265" />
              <mxPoint x="590" y="265" />
              <mxPoint x="590" y="580" />
            </Array>
          </mxGeometry>
        </mxCell>
        <mxCell id="4HWV0PZ-MZFRLMYxg-oZ-143" value="&lt;font style=&quot;font-size: 8px;&quot;&gt;ST&lt;/font&gt;" style="edgeLabel;html=1;align=center;verticalAlign=middle;resizable=0;points=[];" parent="4HWV0PZ-MZFRLMYxg-oZ-141" vertex="1" connectable="0">
          <mxGeometry x="-0.166" relative="1" as="geometry">
            <mxPoint x="-70" y="-88" as="offset" />
          </mxGeometry>
        </mxCell>
        <mxCell id="4HWV0PZ-MZFRLMYxg-oZ-144" style="edgeStyle=orthogonalEdgeStyle;rounded=0;orthogonalLoop=1;jettySize=auto;html=1;exitX=1;exitY=1;exitDx=0;exitDy=0;entryX=0.948;entryY=0.75;entryDx=0;entryDy=0;fillColor=#dae8fc;strokeColor=#6c8ebf;entryPerimeter=0;" parent="1" source="4HWV0PZ-MZFRLMYxg-oZ-96" target="4HWV0PZ-MZFRLMYxg-oZ-161" edge="1">
          <mxGeometry relative="1" as="geometry">
            <Array as="points">
              <mxPoint x="481" y="350" />
              <mxPoint x="610" y="350" />
              <mxPoint x="610" y="595" />
            </Array>
          </mxGeometry>
        </mxCell>
        <mxCell id="4HWV0PZ-MZFRLMYxg-oZ-145" value="&lt;font style=&quot;font-size: 8px;&quot;&gt;ST&lt;/font&gt;" style="edgeLabel;html=1;align=center;verticalAlign=middle;resizable=0;points=[];" parent="4HWV0PZ-MZFRLMYxg-oZ-144" vertex="1" connectable="0">
          <mxGeometry x="-0.6014" y="-1" relative="1" as="geometry">
            <mxPoint x="-74" y="-2" as="offset" />
          </mxGeometry>
        </mxCell>
        <mxCell id="4HWV0PZ-MZFRLMYxg-oZ-157" value="" style="ellipse;whiteSpace=wrap;html=1;aspect=fixed;fillColor=none;" parent="1" vertex="1">
          <mxGeometry x="214.99999999999997" y="455" width="50" height="50" as="geometry" />
        </mxCell>
        <mxCell id="4HWV0PZ-MZFRLMYxg-oZ-166" style="edgeStyle=orthogonalEdgeStyle;rounded=0;orthogonalLoop=1;jettySize=auto;html=1;exitX=0.338;exitY=0.027;exitDx=0;exitDy=0;fillColor=#6a00ff;strokeColor=#3700CC;exitPerimeter=0;" parent="1" source="4HWV0PZ-MZFRLMYxg-oZ-161" target="4HWV0PZ-MZFRLMYxg-oZ-1" edge="1">
          <mxGeometry relative="1" as="geometry">
            <Array as="points">
              <mxPoint x="480" y="550" />
              <mxPoint x="480" y="550" />
              <mxPoint x="480" y="540" />
              <mxPoint x="220" y="540" />
              <mxPoint x="220" y="650" />
            </Array>
          </mxGeometry>
        </mxCell>
        <mxCell id="4HWV0PZ-MZFRLMYxg-oZ-161" value="L" style="ellipse;whiteSpace=wrap;html=1;aspect=fixed;fillColor=#dae8fc;strokeColor=#6c8ebf;" parent="1" vertex="1">
          <mxGeometry x="460" y="550" width="60" height="60" as="geometry" />
        </mxCell>
        <mxCell id="4HWV0PZ-MZFRLMYxg-oZ-164" value="" style="ellipse;whiteSpace=wrap;html=1;aspect=fixed;fillColor=none;" parent="1" vertex="1">
          <mxGeometry x="325" y="255" width="50" height="50" as="geometry" />
        </mxCell>
        <mxCell id="4HWV0PZ-MZFRLMYxg-oZ-165" value="" style="ellipse;whiteSpace=wrap;html=1;aspect=fixed;fillColor=none;" parent="1" vertex="1">
          <mxGeometry x="325" y="95" width="50" height="50" as="geometry" />
        </mxCell>
        <mxCell id="4HWV0PZ-MZFRLMYxg-oZ-167" value="0" style="edgeLabel;html=1;align=center;verticalAlign=middle;resizable=0;points=[];" parent="1" vertex="1" connectable="0">
          <mxGeometry x="245.21" y="535.5925925925926" as="geometry">
            <mxPoint x="221" y="4" as="offset" />
          </mxGeometry>
        </mxCell>
        <mxCell id="4HWV0PZ-MZFRLMYxg-oZ-168" style="edgeStyle=orthogonalEdgeStyle;rounded=0;orthogonalLoop=1;jettySize=auto;html=1;exitX=0.5;exitY=0;exitDx=0;exitDy=0;entryX=0.755;entryY=0.094;entryDx=0;entryDy=0;entryPerimeter=0;fillColor=#dae8fc;strokeColor=#6c8ebf;" parent="1" source="4HWV0PZ-MZFRLMYxg-oZ-161" target="4HWV0PZ-MZFRLMYxg-oZ-161" edge="1">
          <mxGeometry relative="1" as="geometry">
            <Array as="points">
              <mxPoint x="490" y="520" />
              <mxPoint x="505" y="520" />
            </Array>
          </mxGeometry>
        </mxCell>
        <mxCell id="4HWV0PZ-MZFRLMYxg-oZ-169" value="&lt;font style=&quot;font-size: 8px;&quot;&gt;ST&lt;/font&gt;" style="edgeLabel;html=1;align=center;verticalAlign=middle;resizable=0;points=[];" parent="1" vertex="1" connectable="0">
          <mxGeometry x="343.00060572852556" y="670.004160331179" as="geometry">
            <mxPoint x="154" y="-151" as="offset" />
          </mxGeometry>
        </mxCell>
        <mxCell id="4HWV0PZ-MZFRLMYxg-oZ-170" value="" style="ellipse;whiteSpace=wrap;html=1;aspect=fixed;fillColor=none;" parent="1" vertex="1">
          <mxGeometry x="215" y="175" width="50" height="50" as="geometry" />
        </mxCell>
        <mxCell id="VULBjnXwnV87vicGuHLI-1" style="edgeStyle=orthogonalEdgeStyle;rounded=0;orthogonalLoop=1;jettySize=auto;html=1;exitX=1;exitY=1;exitDx=0;exitDy=0;entryX=0.717;entryY=0.054;entryDx=0;entryDy=0;entryPerimeter=0;fillColor=#6a00ff;strokeColor=#3700CC;" parent="1" source="4HWV0PZ-MZFRLMYxg-oZ-161" target="4HWV0PZ-MZFRLMYxg-oZ-9" edge="1">
          <mxGeometry relative="1" as="geometry">
            <Array as="points">
              <mxPoint x="530" y="601" />
              <mxPoint x="530" y="800" />
              <mxPoint x="253" y="800" />
            </Array>
          </mxGeometry>
        </mxCell>
        <mxCell id="VULBjnXwnV87vicGuHLI-2" value="1" style="edgeLabel;html=1;align=center;verticalAlign=middle;resizable=0;points=[];" parent="VULBjnXwnV87vicGuHLI-1" vertex="1" connectable="0">
          <mxGeometry x="-0.8874" y="-1" relative="1" as="geometry">
            <mxPoint as="offset" />
          </mxGeometry>
        </mxCell>
      </root>
    </mxGraphModel>
  </diagram>
</mxfile>
